ffmpeg version 4.0.2 Copyright (c) 2000-2018 the FFmpeg developers
  built with Apple LLVM version 9.1.0 (clang-902.0.39.2)
  configuration: --prefix=/usr/local/Cellar/ffmpeg/4.0.2 --enable-shared --enable-pthreads --enable-version3 --enable-hardcoded-tables --enable-avresample --cc=clang --host-cflags= --host-ldflags= --enable-gpl --enable-libmp3lame --enable-libx264 --enable-libxvid --enable-opencl --enable-videotoolbox --disable-lzma
  libavutil      56. 14.100 / 56. 14.100
  libavcodec     58. 18.100 / 58. 18.100
  libavformat    58. 12.100 / 58. 12.100
  libavdevice    58.  3.100 / 58.  3.100
  libavfilter     7. 16.100 /  7. 16.100
  libavresample   4.  0.  0 /  4.  0.  0
  libswscale      5.  1.100 /  5.  1.100
  libswresample   3.  1.100 /  3.  1.100
  libpostproc    55.  1.100 / 55.  1.100
Input #0, image2pipe, from 'pipe:':
  Duration: N/A, bitrate: N/A
    Stream #0:0: Video: ppm, rgb24, 800x600, 20 fps, 20 tbr, 20 tbn, 20 tbc
Stream mapping:
  Stream #0:0 -> #0:0 (ppm (native) -> h264 (libx264))
[libx264 @ 0x7fcecd801800] using cpu capabilities: MMX2 SSE2Fast SSSE3 SSE4.2 AVX
[libx264 @ 0x7fcecd801800] profile High, level 3.1
[libx264 @ 0x7fcecd801800] 264 - core 152 r2854 e9a5903 - H.264/MPEG-4 AVC codec - Copyleft 2003-2017 - http://www.videolan.org/x264.html - options: cabac=1 ref=3 deblock=1:0:0 analyse=0x3:0x113 me=hex subme=7 psy=1 psy_rd=1.00:0.00 mixed_ref=1 me_range=16 chroma_me=1 trellis=1 8x8dct=1 cqm=0 deadzone=21,11 fast_pskip=1 chroma_qp_offset=-2 threads=6 lookahead_threads=1 sliced_threads=0 nr=0 decimate=1 interlaced=0 bluray_compat=0 constrained_intra=0 bframes=3 b_pyramid=2 b_adapt=1 b_bias=0 direct=1 weightb=1 open_gop=0 weightp=2 keyint=250 keyint_min=20 scenecut=40 intra_refresh=0 rc_lookahead=40 rc=abr mbtree=1 bitrate=400 ratetol=1.0 qcomp=0.60 qpmin=0 qpmax=69 qpstep=4 ip_ratio=1.40 aq=1:1.00
Output #0, mp4, to './mission_records/e9ee43d3-0755-4002-95a7-85c971143bd6/video.mp4':
  Metadata:
    encoder         : Lavf58.12.100
    Stream #0:0: Video: h264 (libx264) (avc1 / 0x31637661), yuv420p, 800x600, q=-1--1, 400 kb/s, 20 fps, 10240 tbn, 20 tbc
    Metadata:
      encoder         : Lavc58.18.100 libx264
    Side data:
      cpb: bitrate max/min/avg: 0/0/400000 buffer size: 0 vbv_delay: -1
frame=   10 fps=0.0 q=0.0 size=       0kB time=00:00:00.00 bitrate=N/A speed=   0x    frame=   15 fps= 14 q=0.0 size=       0kB time=00:00:00.00 bitrate=N/A speed=   0x    frame=   20 fps= 12 q=0.0 size=       0kB time=00:00:00.00 bitrate=N/A speed=   0x    frame=   25 fps= 11 q=0.0 size=       0kB time=00:00:00.00 bitrate=N/A speed=   0x    frame=   30 fps= 10 q=0.0 size=       0kB time=00:00:00.00 bitrate=N/A speed=   0x    frame=   32 fps=7.2 q=-1.0 Lsize=      83kB time=00:00:01.45 bitrate= 470.2kbits/s speed=0.325x    
video:82kB audio:0kB subtitle:0kB other streams:0kB global headers:0kB muxing overhead: 1.253252%
[libx264 @ 0x7fcecd801800] frame I:4     Avg QP:27.88  size:  6062
[libx264 @ 0x7fcecd801800] frame P:22    Avg QP:32.22  size:  2149
[libx264 @ 0x7fcecd801800] frame B:6     Avg QP:30.71  size:  1990
[libx264 @ 0x7fcecd801800] consecutive B-frames: 68.8% 12.5% 18.8%  0.0%
[libx264 @ 0x7fcecd801800] mb I  I16..4: 24.2% 72.6%  3.2%
[libx264 @ 0x7fcecd801800] mb P  I16..4:  5.9% 11.3%  0.2%  P16..4: 21.1%  3.0%  2.2%  0.0%  0.0%    skip:56.3%
[libx264 @ 0x7fcecd801800] mb B  I16..4:  0.4%  1.3%  0.1%  B16..8: 32.9%  3.0%  0.1%  direct: 1.2%  skip:60.9%  L0:60.0% L1:39.5% BI: 0.5%
[libx264 @ 0x7fcecd801800] final ratefactor: 32.61
[libx264 @ 0x7fcecd801800] 8x8 transform intra:68.8% inter:87.9%
[libx264 @ 0x7fcecd801800] coded y,uvDC,uvAC intra: 24.3% 6.1% 0.1% inter: 9.4% 0.1% 0.0%
[libx264 @ 0x7fcecd801800] i16 v,h,dc,p: 15% 61%  8% 15%
[libx264 @ 0x7fcecd801800] i8 v,h,dc,ddl,ddr,vr,hd,vl,hu:  7% 22% 52%  3%  3%  2%  6%  1%  5%
[libx264 @ 0x7fcecd801800] i4 v,h,dc,ddl,ddr,vr,hd,vl,hu: 18% 38% 20%  4%  5%  3%  7%  1%  4%
[libx264 @ 0x7fcecd801800] i8c dc,h,v,p: 72% 27%  1%  0%
[libx264 @ 0x7fcecd801800] Weighted P-Frames: Y:0.0% UV:0.0%
[libx264 @ 0x7fcecd801800] ref P L0: 49.6%  7.3% 27.5% 15.6%
[libx264 @ 0x7fcecd801800] ref B L0: 82.0% 18.0%
[libx264 @ 0x7fcecd801800] kb/s:417.38
